<svg width="40" height="40" viewBox="0 0 40 40" fill="none" xmlns="http://www.w3.org/2000/svg">
<rect width="40" height="40" rx="16" fill="#408CFF"/>
<path d="M14.6422 12C13.8507 12 13.5399 13.0266 14.1985 13.4656L21.4669 18.3112C21.5548 18.3698 21.6302 18.4452 21.6888 18.5331L26.5344 25.8015C26.9734 26.4601 28 26.1493 28 25.3578V12.8C28 12.3582 27.6418 12 27.2 12H14.6422Z" fill="white"/>
<path d="M20.4783 16.546C21.0807 15.8232 22.1736 15.7736 22.8389 16.4389L23.5611 17.1611C24.2264 17.8264 24.1768 18.9193 23.454 19.5216L16.0691 25.6757C15.5769 26.0859 14.8531 26.0531 14.4 25.6V25.6C13.9469 25.1469 13.9141 24.4231 14.3243 23.9309L20.4783 16.546Z" fill="white"/>
</svg>
